<svg xmlns="http://www.w3.org/2000/svg" viewBox="0 0 24 24" fill="none" stroke="currentColor" stroke-width="1.5" aria-hidden="true">
  <path stroke-linecap="round" stroke-linejoin="round" d="M7.7 6a1.3 1.3 0 1 0 2.6 0a1.3 1.3 0 1 0 -2.6 0Z" />
  <path stroke-linecap="round" stroke-linejoin="round" d="M13.7 6a1.3 1.3 0 1 0 2.6 0a1.3 1.3 0 1 0 -2.6 0Z" />
  <path stroke-linecap="round" stroke-linejoin="round" d="M7.7 12a1.3 1.3 0 1 0 2.6 0a1.3 1.3 0 1 0 -2.6 0Z" />
  <path stroke-linecap="round" stroke-linejoin="round" d="M13.7 12a1.3 1.3 0 1 0 2.6 0a1.3 1.3 0 1 0 -2.6 0Z" />
  <path stroke-linecap="round" stroke-linejoin="round" d="M7.7 18a1.3 1.3 0 1 0 2.6 0a1.3 1.3 0 1 0 -2.6 0Z" />
  <path stroke-linecap="round" stroke-linejoin="round" d="M13.7 18a1.3 1.3 0 1 0 2.6 0a1.3 1.3 0 1 0 -2.6 0Z" />
</svg>
